# xmcd CD database file
#
# Track frame offsets:
#	150
#	11702
#	23667
#	34657
#	48325
#	58335
#	70247
#	79915
#	91197
#	100905
#	112290
#	123597
#	135767
#	148072
#
# Disc length: 2151 seconds
#
# Revision: 0
# Processed by: cddbd v1.5.2PL0 Copyright (c) Steve Scherf et al.
# Submitted via: CDex 1.70beta2
#
DISCID=c008650e
DTITLE=Varios - Country Road Vol. 5
DYEAR=1994
DGENRE=Country
TTITLE0=Bobby Bare/Music City U.S.A.
TTITLE1=Dave Dudley/Fireball rolled a seven
TTITLE2=Ferlin Husky/The Wings of a Dove
TTITLE3=Freddy Quinn/Green Green Grass of Home
TTITLE4=Linda Manning/Life keeps moving on
TTITLE5=Dave Dudley/The most Beautiful Girl
TTITLE6=Bobby bare/That`s all right, Mama
TTITLE7=Rick Johnson/You`d better take it
TTITLE8=Norville Dollar/What makes me feel so blue
TTITLE9=David Price/The lonesome Truck driver`s Waltz
TTITLE10=Freddy Quinn/Jambalaya
TTITLE11=Dave Dudley/Rollin on we gone
TTITLE12=Ferlin Husky/I only roll `em
TTITLE13=Freddy Quinn/Home on the range
EXTD=YEAR: 1994
EXTT0=
EXTT1=
EXTT2=
EXTT3=
EXTT4=
EXTT5=
EXTT6=
EXTT7=
EXTT8=
EXTT9=
EXTT10=
EXTT11=
EXTT12=
EXTT13=
PLAYORDER=
